<?xml version="1.0" encoding="UTF-8" standalone="no"?><!DOCTYPE svg PUBLIC "-//W3C//DTD SVG 1.1//EN"
        "http://www.w3.org/Graphics/SVG/1.1/DTD/svg11.dtd">
<svg width="100%" height="100%" viewBox="0 0 10592 2275"
     version="1.1" xmlns="http://www.w3.org/2000/svg" xml:space="preserve"
     style="fill-rule:evenodd;clip-rule:evenodd;stroke-linejoin:round;stroke-miterlimit:2;"><rect id="logo-with-text-for-dark" x="-0" y="2.219" width="10591.3" height="2272.76" style="fill:none;"/>
    <path d="M1551.04,285.472c-86.25,80.208 -164.584,164.583 -233.75,249.375c-113.75,-156.167 -255,-315 -414.167,-462.917c-409.375,379.667 -700,875 -700,1173.33c0,530.416 417.5,960 933.333,960c515.834,-0 933.334,-429.584 933.334,-960c-0,-221.667 -216.667,-679.584 -518.75,-959.792Zm-80.834,1419.38c-90.416,62.917 -201.25,100.417 -321.666,100.417c-300.542,-0 -545.417,-198.875 -545.417,-521.667c0,-160.958 101,-302.667 303.083,-545c29.167,33.333 412,522.5 412,522.5l244.292,-278.667c17.188,28.125 32.779,56.334 46.833,82.917c114.209,217.417 66.292,495.75 -139.125,639.5Z"
          style="fill:#c62828;fill-rule:nonzero;"/>
    <g transform="matrix(1911.15,0,0,1911.15,10201.9,1856.68)"></g>
    <text x="2661.79px" y="1856.68px"
          style="font-family:'Helvetica-Bold', 'Helvetica';font-weight:700;font-size:1911.15px;fill:#fff;">Roasted</text></svg>